<?xml version="1.0" encoding="UTF-8"?>
<svg xmlns="http://www.w3.org/2000/svg" viewBox="-26 -36 1312 952" width="1312" height="952"><style>
text{font-family:Helvetica, Arial, sans-serif;font-size:12px;fill:#111418;dominant-baseline:auto}
.d-mono{font-family:Menlo, Consolas, monospace;font-size:11px;fill:#2d343c}
.d-name{font-family:Helvetica, Arial, sans-serif;font-size:12.5px;font-weight:600;letter-spacing:.04em}
.d-italic{font-style:italic}
.d-comp{font-size:10.5px;font-style:italic;fill:#5b6470}
.d-frame{fill:none;stroke:#111418;stroke-width:1}
.d-frame-tab{fill:#ffffff;stroke:#111418;stroke-width:1}
.d-sym .d-shape{fill:#f4f8fd;stroke:#111418}
.d-sym .d-rule,.d-sym .d-stick{stroke:#111418}
.d-sym.c-b .d-shape{fill:#fdf8ee;stroke:#111418}
.d-sym.c-b .d-rule,.d-sym.c-b .d-stick{stroke:#111418}
.d-sym.c-c .d-shape{fill:#fbf3f6;stroke:#111418}
.d-sym.c-c .d-rule,.d-sym.c-c .d-stick{stroke:#111418}
.d-sym.c-n .d-shape{fill:#fffbe6;stroke:#5b6470}
.d-sym.c-n .d-rule,.d-sym.c-n .d-stick{stroke:#5b6470}
.d-shape{stroke-width:1.2}
.d-shape.dashed{stroke-dasharray:6 4}
.d-rule{stroke-width:.8;opacity:.55;fill:none}
.d-stick{fill:none;stroke-width:1.5}
.d-port{fill:#ffffff;stroke:#111418;stroke-width:1.2}
.d-port-dir{fill:#111418;stroke:none}
.d-line{fill:none;stroke:#2d343c;stroke-width:1.2}
.d-line.dashed{stroke-dasharray:6 4}
.d-head{fill:none;stroke:#2d343c;stroke-width:1.2}
.d-head.filled{fill:#2d343c}
.d-head.hollow{fill:#ffffff}
.d-hit{fill:none;stroke:transparent;stroke-width:12}
.d-label-bg{fill:#ffffff;opacity:.85}
</style><rect x="-26" y="-36" width="1312" height="952" fill="#fff"/><rect class="d-frame" x="-10" y="-20" width="1280" height="920"/><path class="d-frame-tab" d="M-10 -20h325v14l-10 10H-10z"/><text class="d-mono" x="0" y="-4">bdd [package] Consumers [How apps take it in]</text><g class="d-symbols"><g class="d-sym " data-sym="sy_029" transform="translate(520 40)"><rect class="d-shape" width="240" height="50"/><text class="d-mono" x="120" y="19" text-anchor="middle">«block»</text><text class="d-name" x="120" y="36" text-anchor="middle">Toolkit app</text></g><g class="d-sym " data-sym="sy_030" transform="translate(40 260)"><rect class="d-shape" width="220" height="50"/><text class="d-mono" x="110" y="19" text-anchor="middle">«block»</text><text class="d-name" x="110" y="36" text-anchor="middle">Bundled app</text></g><g class="d-sym " data-sym="sy_031" transform="translate(360 260)"><rect class="d-shape" width="220" height="50"/><text class="d-mono" x="110" y="19" text-anchor="middle">«block»</text><text class="d-name" x="110" y="36" text-anchor="middle">No-build app</text></g><g class="d-sym " data-sym="sy_032" transform="translate(680 260)"><rect class="d-shape" width="220" height="50"/><text class="d-mono" x="110" y="19" text-anchor="middle">«block»</text><text class="d-name" x="110" y="36" text-anchor="middle">Single-file app</text></g><g class="d-sym " data-sym="sy_033" transform="translate(1000 260)"><rect class="d-shape" width="220" height="50"/><text class="d-mono" x="110" y="19" text-anchor="middle">«block»</text><text class="d-name" x="110" y="36" text-anchor="middle">SwiftUI app</text></g><g class="d-sym " data-sym="sy_034" transform="translate(360 560)"><rect class="d-shape" width="220" height="50"/><text class="d-mono" x="110" y="19" text-anchor="middle">«block»</text><text class="d-name" x="110" y="36" text-anchor="middle">copy-into</text></g><g class="d-sym " data-sym="sy_035" transform="translate(680 560)"><rect class="d-shape" width="220" height="50"/><text class="d-mono" x="110" y="19" text-anchor="middle">«block»</text><text class="d-name" x="110" y="36" text-anchor="middle">theme.js</text></g><g class="d-sym " data-sym="sy_036" transform="translate(1000 560)"><rect class="d-shape" width="220" height="50"/><text class="d-mono" x="110" y="19" text-anchor="middle">«block»</text><text class="d-name" x="110" y="36" text-anchor="middle">SCTheme.swift</text></g><g class="d-sym " data-sym="sy_037" transform="translate(40 800)"><rect class="d-shape" width="220" height="50"/><text class="d-mono" x="110" y="19" text-anchor="middle">«block»</text><text class="d-name" x="110" y="36" text-anchor="middle">ui-kit</text></g></g><g class="d-paths"><g class="d-path" data-path="pa_027"><path class="d-hit" d="M150 260L150 175L640 175L640 90"/><path class="d-line" d="M150 260L150 175L640 175L640 90"/><path class="d-head hollow" transform="translate(640 90) rotate(-90)" d="M-13 -7L0 0L-13 7Z"/></g><g class="d-path" data-path="pa_028"><path class="d-hit" d="M470 260L470 175L640 175L640 90"/><path class="d-line" d="M470 260L470 175L640 175L640 90"/><path class="d-head hollow" transform="translate(640 90) rotate(-90)" d="M-13 -7L0 0L-13 7Z"/></g><g class="d-path" data-path="pa_029"><path class="d-hit" d="M790 260L790 175L640 175L640 90"/><path class="d-line" d="M790 260L790 175L640 175L640 90"/><path class="d-head hollow" transform="translate(640 90) rotate(-90)" d="M-13 -7L0 0L-13 7Z"/></g><g class="d-path" data-path="pa_030"><path class="d-hit" d="M1110 260L1110 175L640 175L640 90"/><path class="d-line" d="M1110 260L1110 175L640 175L640 90"/><path class="d-head hollow" transform="translate(640 90) rotate(-90)" d="M-13 -7L0 0L-13 7Z"/></g><g class="d-path" data-path="pa_031"><path class="d-hit" d="M470 310L470 435L470 560"/><path class="d-line dashed" d="M470 310L470 435L470 560"/><path class="d-head" transform="translate(470 560) rotate(90)" d="M-11 -5L0 0L-11 5"/><rect class="d-label-bg" x="476" y="365.5" width="93.8" height="15"/><text class="d-mono" x="522.9" y="376.5" text-anchor="middle">vendored copy</text></g><g class="d-path" data-path="pa_032"><path class="d-hit" d="M790 310L790 435L790 560"/><path class="d-line dashed" d="M790 310L790 435L790 560"/><path class="d-head" transform="translate(790 560) rotate(90)" d="M-11 -5L0 0L-11 5"/><rect class="d-label-bg" x="796" y="365.5" width="87.2" height="15"/><text class="d-mono" x="839.6" y="376.5" text-anchor="middle">inlined port</text></g><g class="d-path" data-path="pa_033"><path class="d-hit" d="M1110 310L1110 435L1110 560"/><path class="d-line dashed" d="M1110 310L1110 435L1110 560"/><path class="d-head" transform="translate(1110 560) rotate(90)" d="M-11 -5L0 0L-11 5"/></g><g class="d-path" data-path="pa_034"><path class="d-hit" d="M150 310L150 555L95 555L95 800"/><path class="d-line dashed" d="M150 310L150 555L95 555L95 800"/><path class="d-head" transform="translate(95 800) rotate(90)" d="M-11 -5L0 0L-11 5"/><rect class="d-label-bg" x="156" y="425.5" width="93.8" height="15"/><text class="d-mono" x="202.9" y="436.5" text-anchor="middle">file: package</text></g><g class="d-path" data-path="pa_035"><path class="d-hit" d="M470 610L470 705L150 705L150 800"/><path class="d-line dashed" d="M470 610L470 705L150 705L150 800"/><path class="d-head" transform="translate(150 800) rotate(90)" d="M-11 -5L0 0L-11 5"/><rect class="d-label-bg" x="286.2" y="687" width="47.6" height="15"/><text class="d-mono" x="310" y="698" text-anchor="middle">copies</text></g><g class="d-path" data-path="pa_036"><path class="d-hit" d="M205 800L205 705L790 705L790 610"/><path class="d-line" d="M205 800L205 705L790 705L790 610"/><path class="d-head filled" transform="translate(205 800) rotate(90)" d="M0 0L-9 -5L-18 0L-9 5Z"/><text class="d-mono" x="796" y="634">runtime</text><text class="d-mono" x="784" y="634" text-anchor="end">1</text></g><g class="d-path" data-path="pa_037"><path class="d-hit" d="M205 800L205 705L1110 705L1110 610"/><path class="d-line" d="M205 800L205 705L1110 705L1110 610"/><path class="d-head filled" transform="translate(205 800) rotate(90)" d="M0 0L-9 -5L-18 0L-9 5Z"/><text class="d-mono" x="1116" y="634">swiftTheme</text><text class="d-mono" x="1104" y="634" text-anchor="end">1</text></g></g><g class="d-ports"></g></svg>
