<?xml version="1.0" encoding="UTF-8"?>
<svg xmlns="http://www.w3.org/2000/svg" viewBox="-26 -36 1822 972" width="1822" height="972"><style>
text{font-family:Helvetica, Arial, sans-serif;font-size:12px;fill:#111418;dominant-baseline:auto}
.d-mono{font-family:Menlo, Consolas, monospace;font-size:11px;fill:#2d343c}
.d-name{font-family:Helvetica, Arial, sans-serif;font-size:12.5px;font-weight:600;letter-spacing:.04em}
.d-italic{font-style:italic}
.d-comp{font-size:10.5px;font-style:italic;fill:#5b6470}
.d-frame{fill:none;stroke:#111418;stroke-width:1}
.d-frame-tab{fill:#ffffff;stroke:#111418;stroke-width:1}
.d-sym .d-shape{fill:#f4f8fd;stroke:#111418}
.d-sym .d-rule,.d-sym .d-stick{stroke:#111418}
.d-sym.c-b .d-shape{fill:#fdf8ee;stroke:#111418}
.d-sym.c-b .d-rule,.d-sym.c-b .d-stick{stroke:#111418}
.d-sym.c-c .d-shape{fill:#fbf3f6;stroke:#111418}
.d-sym.c-c .d-rule,.d-sym.c-c .d-stick{stroke:#111418}
.d-sym.c-n .d-shape{fill:#fffbe6;stroke:#5b6470}
.d-sym.c-n .d-rule,.d-sym.c-n .d-stick{stroke:#5b6470}
.d-shape{stroke-width:1.2}
.d-shape.dashed{stroke-dasharray:6 4}
.d-rule{stroke-width:.8;opacity:.55;fill:none}
.d-stick{fill:none;stroke-width:1.5}
.d-port{fill:#ffffff;stroke:#111418;stroke-width:1.2}
.d-port-dir{fill:#111418;stroke:none}
.d-line{fill:none;stroke:#2d343c;stroke-width:1.2}
.d-line.dashed{stroke-dasharray:6 4}
.d-head{fill:none;stroke:#2d343c;stroke-width:1.2}
.d-head.filled{fill:#2d343c}
.d-head.hollow{fill:#ffffff}
.d-hit{fill:none;stroke:transparent;stroke-width:12}
.d-label-bg{fill:#ffffff;opacity:.85}
</style><rect x="-26" y="-36" width="1822" height="972" fill="#fff"/><rect class="d-frame" x="-10" y="-20" width="1790" height="940"/><path class="d-frame-tab" d="M-10 -20h311.8v14l-10 10H-10z"/><text class="d-mono" x="0" y="-4">bdd [package] ui-kit architecture [The kit]</text><g class="d-symbols"><g class="d-sym " data-sym="sy_010" transform="translate(520 40)"><rect class="d-shape" width="300" height="50"/><text class="d-mono" x="150" y="19" text-anchor="middle">«block»</text><text class="d-name" x="150" y="36" text-anchor="middle">ui-kit</text></g><g class="d-sym " data-sym="sy_011" transform="translate(40 360)"><rect class="d-shape" width="200" height="50"/><text class="d-mono" x="100" y="19" text-anchor="middle">«block»</text><text class="d-name" x="100" y="36" text-anchor="middle">tokens.json</text></g><g class="d-sym " data-sym="sy_012" transform="translate(280 360)"><rect class="d-shape" width="220" height="50"/><text class="d-mono" x="110" y="19" text-anchor="middle">«block»</text><text class="d-name" x="110" y="36" text-anchor="middle">kit.css</text></g><g class="d-sym " data-sym="sy_013" transform="translate(540 360)"><rect class="d-shape" width="240" height="50"/><text class="d-mono" x="120" y="19" text-anchor="middle">«block»</text><text class="d-name" x="120" y="36" text-anchor="middle">theme.js</text></g><g class="d-sym " data-sym="sy_014" transform="translate(820 360)"><rect class="d-shape" width="200" height="50"/><text class="d-mono" x="100" y="19" text-anchor="middle">«block»</text><text class="d-name" x="100" y="36" text-anchor="middle">Web component</text></g><g class="d-sym " data-sym="sy_015" transform="translate(1060 360)"><rect class="d-shape" width="190" height="50"/><text class="d-mono" x="95" y="19" text-anchor="middle">«block»</text><text class="d-name" x="95" y="36" text-anchor="middle">SCTheme.swift</text></g><g class="d-sym " data-sym="sy_016" transform="translate(1290 360)"><rect class="d-shape" width="150" height="50"/><text class="d-mono" x="75" y="19" text-anchor="middle">«block»</text><text class="d-name" x="75" y="36" text-anchor="middle">Fonts</text></g><g class="d-sym " data-sym="sy_017" transform="translate(1480 360)"><rect class="d-shape" width="160" height="50"/><text class="d-mono" x="80" y="19" text-anchor="middle">«block»</text><text class="d-name" x="80" y="36" text-anchor="middle">Adapter</text></g><g class="d-sym " data-sym="sy_018" transform="translate(190 620)"><rect class="d-shape" width="170" height="50"/><text class="d-mono" x="85" y="19" text-anchor="middle">«block»</text><text class="d-name" x="85" y="36" text-anchor="middle">tokens.css</text></g><g class="d-sym " data-sym="sy_019" transform="translate(400 620)"><rect class="d-shape" width="170" height="50"/><text class="d-mono" x="85" y="19" text-anchor="middle">«block»</text><text class="d-name" x="85" y="36" text-anchor="middle">mac.css</text></g><g class="d-sym " data-sym="sy_020" transform="translate(540 820)"><rect class="d-shape" width="190" height="50"/><text class="d-mono" x="95" y="19" text-anchor="middle">«block»</text><text class="d-name" x="95" y="36" text-anchor="middle">&lt;sc-theme-picker&gt;</text></g><g class="d-sym " data-sym="sy_021" transform="translate(750 820)"><rect class="d-shape" width="190" height="50"/><text class="d-mono" x="95" y="19" text-anchor="middle">«block»</text><text class="d-name" x="95" y="36" text-anchor="middle">&lt;sc-sync-status&gt;</text></g><g class="d-sym " data-sym="sy_022" transform="translate(960 820)"><rect class="d-shape" width="150" height="50"/><text class="d-mono" x="75" y="19" text-anchor="middle">«block»</text><text class="d-name" x="75" y="36" text-anchor="middle">&lt;sc-toast&gt;</text></g><g class="d-sym " data-sym="sy_023" transform="translate(1130 820)"><rect class="d-shape" width="150" height="50"/><text class="d-mono" x="75" y="19" text-anchor="middle">«block»</text><text class="d-name" x="75" y="36" text-anchor="middle">&lt;sc-dialog&gt;</text></g><g class="d-sym " data-sym="sy_024" transform="translate(1300 820)"><rect class="d-shape" width="220" height="50"/><text class="d-mono" x="110" y="19" text-anchor="middle">«block»</text><text class="d-name" x="110" y="36" text-anchor="middle">&lt;sc-command-palette&gt;</text></g><g class="d-sym " data-sym="sy_025" transform="translate(1540 820)"><rect class="d-shape" width="190" height="50"/><text class="d-mono" x="95" y="19" text-anchor="middle">«block»</text><text class="d-name" x="95" y="36" text-anchor="middle">&lt;sc-portal-bar&gt;</text></g></g><g class="d-paths"><g class="d-path" data-path="pa_009"><path class="d-hit" d="M670 90L670 225L140 225L140 360"/><path class="d-line" d="M670 90L670 225L140 225L140 360"/><path class="d-head filled" transform="translate(670 90) rotate(-90)" d="M0 0L-9 -5L-18 0L-9 5Z"/><text class="d-mono" x="146" y="344">tokens</text><text class="d-mono" x="134" y="344" text-anchor="end">1</text></g><g class="d-path" data-path="pa_010"><path class="d-hit" d="M670 90L670 225L390 225L390 360"/><path class="d-line" d="M670 90L670 225L390 225L390 360"/><path class="d-head filled" transform="translate(670 90) rotate(-90)" d="M0 0L-9 -5L-18 0L-9 5Z"/><text class="d-mono" x="396" y="344">stylesheet</text><text class="d-mono" x="384" y="344" text-anchor="end">1</text></g><g class="d-path" data-path="pa_011"><path class="d-hit" d="M670 90L670 225L660 225L660 360"/><path class="d-line" d="M670 90L670 225L660 225L660 360"/><path class="d-head filled" transform="translate(670 90) rotate(-90)" d="M0 0L-9 -5L-18 0L-9 5Z"/><text class="d-mono" x="666" y="344">runtime</text><text class="d-mono" x="654" y="344" text-anchor="end">1</text></g><g class="d-path" data-path="pa_012"><path class="d-hit" d="M670 90L670 225L920 225L920 360"/><path class="d-line" d="M670 90L670 225L920 225L920 360"/><path class="d-head filled" transform="translate(670 90) rotate(-90)" d="M0 0L-9 -5L-18 0L-9 5Z"/><text class="d-mono" x="926" y="344">components</text><text class="d-mono" x="914" y="344" text-anchor="end">6</text></g><g class="d-path" data-path="pa_013"><path class="d-hit" d="M670 90L670 225L1155 225L1155 360"/><path class="d-line" d="M670 90L670 225L1155 225L1155 360"/><path class="d-head filled" transform="translate(670 90) rotate(-90)" d="M0 0L-9 -5L-18 0L-9 5Z"/><text class="d-mono" x="1161" y="344">swiftTheme</text><text class="d-mono" x="1149" y="344" text-anchor="end">1</text></g><g class="d-path" data-path="pa_014"><path class="d-hit" d="M670 90L670 225L1365 225L1365 360"/><path class="d-line" d="M670 90L670 225L1365 225L1365 360"/><path class="d-head filled" transform="translate(670 90) rotate(-90)" d="M0 0L-9 -5L-18 0L-9 5Z"/><text class="d-mono" x="1371" y="344">fonts</text><text class="d-mono" x="1359" y="344" text-anchor="end">1</text></g><g class="d-path" data-path="pa_015"><path class="d-hit" d="M670 90L670 225L1560 225L1560 360"/><path class="d-line" d="M670 90L670 225L1560 225L1560 360"/><path class="d-head filled" transform="translate(670 90) rotate(-90)" d="M0 0L-9 -5L-18 0L-9 5Z"/><text class="d-mono" x="1566" y="344">adapters</text><text class="d-mono" x="1554" y="344" text-anchor="end">0..*</text></g><g class="d-path" data-path="pa_016"><path class="d-hit" d="M390 410L390 515L275 515L275 620"/><path class="d-line" d="M390 410L390 515L275 515L275 620"/><path class="d-head filled" transform="translate(390 410) rotate(-90)" d="M0 0L-9 -5L-18 0L-9 5Z"/><text class="d-mono" x="281" y="604">tokens</text><text class="d-mono" x="269" y="604" text-anchor="end">1</text></g><g class="d-path" data-path="pa_017"><path class="d-hit" d="M390 410L390 515L485 515L485 620"/><path class="d-line" d="M390 410L390 515L485 515L485 620"/><path class="d-head filled" transform="translate(390 410) rotate(-90)" d="M0 0L-9 -5L-18 0L-9 5Z"/><text class="d-mono" x="491" y="604">macSkin</text><text class="d-mono" x="479" y="604" text-anchor="end">1</text></g><g class="d-path" data-path="pa_018"><path class="d-hit" d="M667 820L667 615L920 615L920 410"/><path class="d-line" d="M667 820L667 615L920 615L920 410"/><path class="d-head hollow" transform="translate(920 410) rotate(-90)" d="M-13 -7L0 0L-13 7Z"/></g><g class="d-path" data-path="pa_019"><path class="d-hit" d="M603 820L603 615L660 615L660 410"/><path class="d-line" d="M603 820L603 615L660 615L660 410"/><path class="d-head" transform="translate(660 410) rotate(-90)" d="M-11 -5L0 0L-11 5"/><path class="d-head hollow" transform="translate(603 820) rotate(90)" d="M0 0L-9 -5L-18 0L-9 5Z"/><text class="d-mono" x="666" y="434">theme</text><text class="d-mono" x="654" y="434" text-anchor="end">1</text></g><g class="d-path" data-path="pa_020"><path class="d-hit" d="M845 820L845 615L920 615L920 410"/><path class="d-line" d="M845 820L845 615L920 615L920 410"/><path class="d-head hollow" transform="translate(920 410) rotate(-90)" d="M-13 -7L0 0L-13 7Z"/></g><g class="d-path" data-path="pa_021"><path class="d-hit" d="M1035 820L1035 615L920 615L920 410"/><path class="d-line" d="M1035 820L1035 615L920 615L920 410"/><path class="d-head hollow" transform="translate(920 410) rotate(-90)" d="M-13 -7L0 0L-13 7Z"/></g><g class="d-path" data-path="pa_022"><path class="d-hit" d="M1205 820L1205 615L920 615L920 410"/><path class="d-line" d="M1205 820L1205 615L920 615L920 410"/><path class="d-head hollow" transform="translate(920 410) rotate(-90)" d="M-13 -7L0 0L-13 7Z"/></g><g class="d-path" data-path="pa_023"><path class="d-hit" d="M1410 820L1410 615L920 615L920 410"/><path class="d-line" d="M1410 820L1410 615L920 615L920 410"/><path class="d-head hollow" transform="translate(920 410) rotate(-90)" d="M-13 -7L0 0L-13 7Z"/></g><g class="d-path" data-path="pa_024"><path class="d-hit" d="M1635 820L1635 615L920 615L920 410"/><path class="d-line" d="M1635 820L1635 615L920 615L920 410"/><path class="d-head hollow" transform="translate(920 410) rotate(-90)" d="M-13 -7L0 0L-13 7Z"/></g></g><g class="d-ports"></g></svg>
