<?xml version="1.0" encoding="UTF-8"?>
<svg xmlns="http://www.w3.org/2000/svg" viewBox="4 -36 1202 678" width="1202" height="678"><style>
text{font-family:Helvetica, Arial, sans-serif;font-size:12px;fill:#111418;dominant-baseline:auto}
.d-mono{font-family:Menlo, Consolas, monospace;font-size:11px;fill:#2d343c}
.d-name{font-family:Helvetica, Arial, sans-serif;font-size:12.5px;font-weight:600;letter-spacing:.04em}
.d-italic{font-style:italic}
.d-comp{font-size:10.5px;font-style:italic;fill:#5b6470}
.d-frame{fill:none;stroke:#111418;stroke-width:1}
.d-frame-tab{fill:#ffffff;stroke:#111418;stroke-width:1}
.d-sym .d-shape{fill:#f4f8fd;stroke:#111418}
.d-sym .d-rule,.d-sym .d-stick{stroke:#111418}
.d-sym.c-b .d-shape{fill:#fdf8ee;stroke:#111418}
.d-sym.c-b .d-rule,.d-sym.c-b .d-stick{stroke:#111418}
.d-sym.c-c .d-shape{fill:#fbf3f6;stroke:#111418}
.d-sym.c-c .d-rule,.d-sym.c-c .d-stick{stroke:#111418}
.d-sym.c-n .d-shape{fill:#fffbe6;stroke:#5b6470}
.d-sym.c-n .d-rule,.d-sym.c-n .d-stick{stroke:#5b6470}
.d-shape{stroke-width:1.2}
.d-shape.dashed{stroke-dasharray:6 4}
.d-rule{stroke-width:.8;opacity:.55;fill:none}
.d-stick{fill:none;stroke-width:1.5}
.d-port{fill:#ffffff;stroke:#111418;stroke-width:1.2}
.d-port-dir{fill:#111418;stroke:none}
.d-line{fill:none;stroke:#2d343c;stroke-width:1.2}
.d-line.dashed{stroke-dasharray:6 4}
.d-head{fill:none;stroke:#2d343c;stroke-width:1.2}
.d-head.filled{fill:#2d343c}
.d-head.hollow{fill:#ffffff}
.d-hit{fill:none;stroke:transparent;stroke-width:12}
.d-label-bg{fill:#ffffff;opacity:.85}
</style><rect x="4" y="-36" width="1202" height="678" fill="#fff"/><rect class="d-frame" x="20" y="-20" width="1170" height="646"/><path class="d-frame-tab" d="M20 -20h318.4v14l-10 10H20z"/><text class="d-mono" x="30" y="-4">pkg [package] ui-kit architecture [Packages]</text><g class="d-symbols"><g class="d-sym " data-sym="sy_001" transform="translate(340 40)"><path class="d-shape" d="M0 0H87.1V20H0Z"/><rect class="d-shape" y="20" width="200" height="76"/><text class="d-name" x="8" y="14" text-anchor="start">template</text></g><g class="d-sym " data-sym="sy_002" transform="translate(640 40)"><path class="d-shape" d="M0 0H70V20H0Z"/><rect class="d-shape" y="20" width="200" height="76"/><text class="d-name" x="8" y="14" text-anchor="start">js</text></g><g class="d-sym " data-sym="sy_003" transform="translate(940 40)"><path class="d-shape" d="M0 0H100.3V20H0Z"/><rect class="d-shape" y="20" width="200" height="76"/><text class="d-name" x="8" y="14" text-anchor="start">Consumers</text></g><g class="d-sym " data-sym="sy_004" transform="translate(340 260)"><path class="d-shape" d="M0 0H86.7V20H0Z"/><rect class="d-shape" y="20" width="200" height="76"/><text class="d-name" x="8" y="14" text-anchor="start">adapters</text></g><g class="d-sym " data-sym="sy_005" transform="translate(640 260)"><path class="d-shape" d="M0 0H70V20H0Z"/><rect class="d-shape" y="20" width="200" height="76"/><text class="d-name" x="8" y="14" text-anchor="start">css</text></g><g class="d-sym " data-sym="sy_006" transform="translate(940 260)"><path class="d-shape" d="M0 0H70V20H0Z"/><rect class="d-shape" y="20" width="200" height="76"/><text class="d-name" x="8" y="14" text-anchor="start">fonts</text></g><g class="d-sym " data-sym="sy_007" transform="translate(340 480)"><path class="d-shape" d="M0 0H75.2V20H0Z"/><rect class="d-shape" y="20" width="200" height="76"/><text class="d-name" x="8" y="14" text-anchor="start">scripts</text></g><g class="d-sym " data-sym="sy_008" transform="translate(640 480)"><path class="d-shape" d="M0 0H71V20H0Z"/><rect class="d-shape" y="20" width="200" height="76"/><text class="d-name" x="8" y="14" text-anchor="start">tokens</text></g><g class="d-sym " data-sym="sy_009" transform="translate(940 480)"><path class="d-shape" d="M0 0H70V20H0Z"/><rect class="d-shape" y="20" width="200" height="76"/><text class="d-name" x="8" y="14" text-anchor="start">swift</text></g></g><g class="d-paths"><g class="d-path" data-path="pa_001"><path class="d-hit" d="M540 88L590 88L640 88"/><path class="d-line dashed" d="M540 88L590 88L640 88"/><path class="d-head" transform="translate(640 88) rotate(0)" d="M-11 -5L0 0L-11 5"/></g><g class="d-path" data-path="pa_002"><path class="d-hit" d="M940 88L890 88L840 88"/><path class="d-line dashed" d="M940 88L890 88L840 88"/><path class="d-head" transform="translate(840 88) rotate(180)" d="M-11 -5L0 0L-11 5"/></g><g class="d-path" data-path="pa_003"><path class="d-hit" d="M740 136L740 198L740 260"/><path class="d-line dashed" d="M740 136L740 198L740 260"/><path class="d-head" transform="translate(740 260) rotate(90)" d="M-11 -5L0 0L-11 5"/><rect class="d-label-bg" x="746" y="160" width="67.4" height="15"/><text class="d-mono" x="779.7" y="171" text-anchor="middle">styled by</text></g><g class="d-path" data-path="pa_004"><path class="d-hit" d="M540 308L590 308L640 308"/><path class="d-line dashed" d="M540 308L590 308L640 308"/><path class="d-head" transform="translate(640 308) rotate(0)" d="M-11 -5L0 0L-11 5"/></g><g class="d-path" data-path="pa_005"><path class="d-hit" d="M840 308L890 308L940 308"/><path class="d-line dashed" d="M840 308L890 308L940 308"/><path class="d-head" transform="translate(940 308) rotate(0)" d="M-11 -5L0 0L-11 5"/></g><g class="d-path" data-path="pa_006"><path class="d-hit" d="M740 356L740 418L740 480"/><path class="d-line dashed" d="M740 356L740 418L740 480"/><path class="d-head" transform="translate(740 480) rotate(90)" d="M-11 -5L0 0L-11 5"/><rect class="d-label-bg" x="746" y="380" width="100.4" height="15"/><text class="d-mono" x="796.2" y="391" text-anchor="middle">generated from</text></g><g class="d-path" data-path="pa_007"><path class="d-hit" d="M540 528L590 528L640 528"/><path class="d-line dashed" d="M540 528L590 528L640 528"/><path class="d-head" transform="translate(640 528) rotate(0)" d="M-11 -5L0 0L-11 5"/></g><g class="d-path" data-path="pa_008"><path class="d-hit" d="M940 528L890 528L840 528"/><path class="d-line dashed" d="M940 528L890 528L840 528"/><path class="d-head" transform="translate(840 528) rotate(180)" d="M-11 -5L0 0L-11 5"/><rect class="d-label-bg" x="864.8" y="510" width="100.4" height="15"/><text class="d-mono" x="915" y="521" text-anchor="middle">generated from</text></g></g><g class="d-ports"></g></svg>
